<svg width="16" height="14" viewBox="0 0 16 14" fill="none" xmlns="http://www.w3.org/2000/svg">
<path fill-rule="evenodd" clip-rule="evenodd" d="M15.5346 5.96063L12.9441 8.59181C12.8031 8.73506 12.6105 8.81569 12.4095 8.81569C12.2085 8.81569 12.0159 8.73506 11.8749 8.59181L9.28444 5.96063C8.99381 5.6655 8.99756 5.19075 9.29269 4.89994C9.58781 4.60931 10.0626 4.61306 10.3534 4.90837L11.8014 6.37894C11.6136 3.65681 9.37931 1.5 6.65794 1.5C3.81394 1.5 1.5 3.85519 1.5 6.75C1.5 9.645 3.81394 12 6.65794 12C7.70475 12 8.71219 11.6831 9.57094 11.0833C9.91069 10.8463 10.3783 10.9294 10.6153 11.2689C10.8525 11.6085 10.7692 12.0761 10.4297 12.3133C9.31781 13.0896 8.01356 13.5 6.65794 13.5C2.98688 13.5 0 10.4721 0 6.75C0 3.02813 2.98688 0 6.65794 0C10.1152 0 12.9645 2.68594 13.2847 6.10763L14.4656 4.90837C14.7564 4.61306 15.2314 4.6095 15.5263 4.89994C15.8214 5.19075 15.8252 5.6655 15.5346 5.96063Z" fill="white"/>
</svg>
