<svg width="15" height="16" viewBox="0 0 15 16" fill="none" xmlns="http://www.w3.org/2000/svg">
<path fill-rule="evenodd" clip-rule="evenodd" d="M11.4286 8.19253V15.2967C11.4286 15.6851 11.0841 16 10.6957 16H0.703297C0.314901 16 0 15.6851 0 15.2967V1.90277C0 1.51437 0.314901 1.23077 0.703297 1.23077H8.01301C8.40141 1.23077 8.71631 1.54567 8.71631 1.93407C8.71631 2.32246 8.40141 2.63736 8.01301 2.63736H1.40659V14.5934H10.022V8.19253C10.022 7.80413 10.3369 7.48923 10.7253 7.48923C11.1137 7.48923 11.4286 7.80413 11.4286 8.19253ZM6.04778 8.82325L5.20312 9.15837L5.54141 8.29314L12.4513 1.27881L12.9726 1.80716L6.04778 8.82325ZM14.0904 1.43666L12.8278 0.157011C12.7286 0.0566154 12.5934 0 12.4522 0C12.311 0 12.1757 0.0567912 12.0765 0.157187L4.71508 7.62989C4.66497 7.68088 4.62559 7.74136 4.59956 7.808L3.7804 9.90382C3.70392 10.0993 3.75068 10.3216 3.89943 10.4698C4.00036 10.57 4.13468 10.6233 4.27165 10.6233C4.33706 10.6233 4.40299 10.6112 4.46611 10.5862L6.54119 9.76299C6.60906 9.73591 6.67077 9.69512 6.72211 9.64308L14.0904 2.17776C14.2931 1.97222 14.2931 1.64202 14.0904 1.43666Z" fill="#8E8E8E"/>
</svg>
