<svg width="12" height="11" viewBox="0 0 12 11" fill="none" xmlns="http://www.w3.org/2000/svg">
<path fill-rule="evenodd" clip-rule="evenodd" d="M11.662 4.91528L9.85273 6.86431C9.75426 6.97042 9.61977 7.03014 9.47939 7.03014C9.33901 7.03014 9.20452 6.97042 9.10605 6.86431L7.29682 4.91528C7.09385 4.69667 7.09647 4.345 7.30258 4.12958C7.5087 3.91431 7.84027 3.91708 8.04338 4.13583L9.05471 5.22514C8.9235 3.20875 7.36308 1.61111 5.46245 1.61111C3.47618 1.61111 1.86011 3.35569 1.86011 5.5C1.86011 7.64444 3.47618 9.38889 5.46245 9.38889C6.19356 9.38889 6.89716 9.15417 7.49691 8.70986C7.7342 8.53431 8.06079 8.59583 8.22631 8.84736C8.39197 9.09889 8.33383 9.44528 8.09667 9.62097C7.32013 10.196 6.40923 10.5 5.46245 10.5C2.89856 10.5 0.8125 8.25708 0.8125 5.5C0.8125 2.74306 2.89856 0.5 5.46245 0.5C7.87707 0.5 9.867 2.48958 10.0907 5.02417L10.9154 4.13583C11.1185 3.91708 11.4502 3.91444 11.6562 4.12958C11.8623 4.345 11.8649 4.69667 11.662 4.91528Z" fill="#C74644"/>
</svg>
