<svg width="15" height="16" viewBox="0 0 15 16" fill="none" xmlns="http://www.w3.org/2000/svg">
<path fill-rule="evenodd" clip-rule="evenodd" d="M11.028 6.86084C11.1564 6.98921 11.2311 7.16782 11.2311 7.34991C11.2311 7.53375 11.1564 7.71235 11.028 7.84072C10.8999 7.97084 10.7193 8.04357 10.5374 8.04357C10.3553 8.04357 10.1767 7.97084 10.0466 7.84072C9.91823 7.71235 9.84375 7.53375 9.84375 7.34991C9.84375 7.16782 9.91823 6.98921 10.0466 6.86084C10.1767 6.73073 10.3553 6.65625 10.5374 6.65625C10.7193 6.65625 10.8999 6.73073 11.028 6.86084ZM12.3061 5.52988C12.2654 5.83494 12.0048 6.0568 11.7052 6.0568C11.6785 6.0568 11.6515 6.05505 11.6243 6.05139C11.292 6.00709 11.0586 5.70186 11.1029 5.36942C11.224 4.46105 10.2115 3.98628 10.1682 3.96657C9.86472 3.82756 9.72885 3.46878 9.86594 3.16442C10.003 2.86006 10.3583 2.72315 10.6636 2.85814C10.7406 2.89233 12.548 3.71593 12.3061 5.52988ZM9.60073 9.5461C7.38789 9.5461 5.58789 7.71611 5.58789 5.46681C5.58789 3.21769 7.38789 1.3877 9.60073 1.3877C11.8132 1.3877 13.6134 3.21769 13.6134 5.46681C13.6134 7.71611 11.8132 9.5461 9.60073 9.5461ZM9.60001 0C6.62235 0 4.19986 2.45232 4.19986 5.46661C4.19986 6.73324 4.62858 7.89957 5.34543 8.82748L0.224692 14.0204C-0.0779233 14.3274 -0.074435 14.8215 0.232541 15.1241C0.384459 15.2741 0.582424 15.3488 0.780388 15.3488C0.981841 15.3488 1.18329 15.2714 1.33608 15.1165L6.46572 9.91428C7.3502 10.5547 8.43194 10.9334 9.60001 10.9334C12.5777 10.9334 15 8.48108 15 5.46661C15 2.45232 12.5777 0 9.60001 0Z" fill="#BDBEC2"/>
</svg>
