<svg width="36" height="36" viewBox="0 0 36 36" fill="none" xmlns="http://www.w3.org/2000/svg">
<rect width="36" height="36" rx="8" fill="#FF7A00" fill-opacity="0.16"/>
<path fill-rule="evenodd" clip-rule="evenodd" d="M21.7605 25.9146H14.804C12.2487 25.9146 10.2883 24.9917 10.8452 21.2769L11.4935 16.2426C11.8368 14.3891 13.0191 13.6797 14.0565 13.6797H22.5385C23.5912 13.6797 24.7048 14.4425 25.1015 16.2426L25.7498 21.2769C26.2227 24.5721 24.3158 25.9146 21.7605 25.9146Z" stroke="#FF7A00" stroke-width="1.5" stroke-linecap="round" stroke-linejoin="round"/>
<path d="M21.876 13.4988C21.876 11.5104 20.2641 9.89847 18.2757 9.89847V9.89847C17.3182 9.89441 16.3985 10.2719 15.72 10.9476C15.0416 11.6232 14.6601 12.5413 14.6602 13.4988V13.4988" stroke="#FF7A00" stroke-width="1.5" stroke-linecap="round" stroke-linejoin="round"/>
<path d="M20.7442 17.2486H20.7061" stroke="#FF7A00" stroke-width="1.5" stroke-linecap="round" stroke-linejoin="round"/>
<path d="M15.8887 17.2486H15.8506" stroke="#FF7A00" stroke-width="1.5" stroke-linecap="round" stroke-linejoin="round"/>
</svg>
