<svg width="16" height="16" viewBox="0 0 16 16" fill="none" xmlns="http://www.w3.org/2000/svg">
<path fill-rule="evenodd" clip-rule="evenodd" d="M8.99642 13.5386C9.32961 13.5386 9.60354 13.256 9.61145 12.9213L9.79027 5.32972C9.79818 4.98985 9.52934 4.70379 9.18948 4.69587C8.84433 4.69077 8.56776 4.95469 8.55985 5.29438L8.38104 12.8933C8.37295 13.233 8.64178 13.5386 8.98165 13.5386H8.99642ZM6.09658 13.5385H6.11135C6.45122 13.5385 6.72006 13.2117 6.71214 12.8718L6.53333 5.27024C6.52524 4.93037 6.24656 4.65275 5.90353 4.66031C5.56384 4.66822 5.29482 4.94549 5.30291 5.28536L5.48173 12.9031C5.48964 13.2379 5.7634 13.5385 6.09658 13.5385ZM5.80273 2.11008H9.31922V1.23096H5.80273V2.11008ZM15.1209 2.81319C15.1209 3.20158 14.806 3.51648 14.4176 3.51648H0.703297C0.314901 3.51648 0 3.20158 0 2.81319C0 2.42479 0.314901 2.10989 0.703297 2.10989H4.57143V0.527473C4.57143 0.187604 4.79807 0 5.13793 0H9.98277C10.3226 0 10.5495 0.187604 10.5495 0.527473V2.10989H14.4176C14.806 2.10989 15.1209 2.42479 15.1209 2.81319ZM13.2566 5.16712L12.7198 15.3338C12.7001 15.7073 12.3916 16 12.0176 16H3.1033C2.72932 16 2.42075 15.7073 2.40105 15.3338L1.86444 5.16712C1.84387 4.77925 2.14171 4.44818 2.52958 4.42778C2.91938 4.40897 3.2487 4.70523 3.2691 5.09292L3.77055 14.5934H11.3503L11.8518 5.09292C11.8724 4.70506 12.2057 4.4102 12.5913 4.42778C12.9792 4.44818 13.277 4.77925 13.2566 5.16712Z" fill="#8E8E8E"/>
</svg>
